<svg width="345" height="118" viewBox="0 0 345 118" fill="none" xmlns="http://www.w3.org/2000/svg">
<rect x="0.5" y="0.5" width="344" height="117" rx="8.5" fill="#414141"/>
<rect x="0.5" y="0.5" width="344" height="117" rx="8.5" stroke="#DBB281" stroke-dasharray="8 8"/>
<g filter="url(#filter0_b_540_834)">
<rect x="155.5" y="28.5" width="34" height="26" rx="4.5" stroke="#FFC491"/>
</g>
<g clip-path="url(#clip0_540_834)">
<path d="M184.25 44.625V44.6256C184.25 45.1229 184.052 45.5998 183.701 45.9515C183.349 46.3031 182.872 46.5006 182.375 46.5006C181.877 46.5005 181.4 46.3029 181.049 45.9513C180.697 45.5996 180.5 45.1226 180.5 44.6253C180.5 44.128 180.697 43.651 181.049 43.2993C181.4 42.9476 181.877 42.7501 182.375 42.75C182.872 42.75 183.349 42.9475 183.701 43.2991C184.052 43.6508 184.25 44.1277 184.25 44.625ZM194.25 37.75V60.25C194.249 60.9128 193.986 61.5483 193.517 62.0169C193.048 62.4856 192.413 62.7492 191.75 62.75H164.25C163.587 62.7492 162.952 62.4856 162.483 62.0169C162.014 61.5483 161.751 60.9128 161.75 60.25V37.75C161.751 37.0872 162.014 36.4517 162.483 35.9831C162.952 35.5144 163.587 35.2508 164.25 35.25H191.75C192.413 35.2508 193.048 35.5144 193.517 35.9831C193.986 36.4517 194.249 37.0872 194.25 37.75ZM188.337 51.3189C189.597 52.5788 191.751 51.6864 191.751 49.9045L191.75 39.7498C191.75 38.6453 190.855 37.75 189.75 37.75H166.25C165.145 37.75 164.25 38.6454 164.25 39.75V47.4038C164.25 49.1856 166.404 50.0779 167.664 48.818L169.982 46.5C170.451 46.0319 171.087 45.769 171.75 45.769C172.413 45.769 173.049 46.0319 173.518 46.5L179.086 52.0681C179.867 52.8491 181.133 52.8491 181.914 52.068L183.732 50.25C184.201 49.7819 184.837 49.519 185.5 49.519C186.163 49.519 186.799 49.7819 187.268 50.25L188.337 51.3189Z" fill="#FFC491"/>
</g>
<path d="M147.716 82.104C146.868 82.104 146.167 81.824 145.612 81.264C145.063 80.704 144.788 80.016 144.788 79.2C144.788 78.384 145.063 77.696 145.612 77.136C146.167 76.576 146.868 76.296 147.716 76.296C148.228 76.296 148.698 76.4187 149.124 76.664C149.556 76.9093 149.892 77.24 150.132 77.656L149.484 78.032C149.324 77.7227 149.084 77.4773 148.764 77.296C148.45 77.1093 148.1 77.016 147.716 77.016C147.071 77.016 146.543 77.224 146.132 77.64C145.727 78.056 145.524 78.576 145.524 79.2C145.524 79.8187 145.727 80.336 146.132 80.752C146.543 81.168 147.071 81.376 147.716 81.376C148.1 81.376 148.45 81.2853 148.764 81.104C149.084 80.9173 149.324 80.672 149.484 80.368L150.132 80.736C149.898 81.152 149.564 81.4853 149.132 81.736C148.7 81.9813 148.228 82.104 147.716 82.104ZM152.918 77.896C153.388 77.896 153.764 78.0453 154.046 78.344C154.329 78.6373 154.47 79.0373 154.47 79.544V82H153.774V79.584C153.774 79.2587 153.686 79.008 153.51 78.832C153.334 78.6507 153.092 78.56 152.782 78.56C152.436 78.56 152.156 78.6693 151.942 78.888C151.729 79.1013 151.622 79.432 151.622 79.88V82H150.926V76.4H151.622V78.576C151.905 78.1227 152.337 77.896 152.918 77.896ZM158.818 81.496C158.407 81.9013 157.909 82.104 157.322 82.104C156.735 82.104 156.237 81.9013 155.826 81.496C155.421 81.0907 155.218 80.592 155.218 80C155.218 79.408 155.421 78.9093 155.826 78.504C156.237 78.0987 156.735 77.896 157.322 77.896C157.909 77.896 158.407 78.0987 158.818 78.504C159.229 78.9093 159.434 79.408 159.434 80C159.434 80.592 159.229 81.0907 158.818 81.496ZM157.322 81.424C157.722 81.424 158.058 81.288 158.33 81.016C158.602 80.744 158.738 80.4053 158.738 80C158.738 79.5947 158.602 79.256 158.33 78.984C158.058 78.712 157.722 78.576 157.322 78.576C156.927 78.576 156.594 78.712 156.322 78.984C156.05 79.256 155.914 79.5947 155.914 80C155.914 80.4053 156.05 80.744 156.322 81.016C156.594 81.288 156.927 81.424 157.322 81.424ZM163.631 81.496C163.22 81.9013 162.721 82.104 162.135 82.104C161.548 82.104 161.049 81.9013 160.639 81.496C160.233 81.0907 160.031 80.592 160.031 80C160.031 79.408 160.233 78.9093 160.639 78.504C161.049 78.0987 161.548 77.896 162.135 77.896C162.721 77.896 163.22 78.0987 163.631 78.504C164.041 78.9093 164.247 79.408 164.247 80C164.247 80.592 164.041 81.0907 163.631 81.496ZM162.135 81.424C162.535 81.424 162.871 81.288 163.143 81.016C163.415 80.744 163.551 80.4053 163.551 80C163.551 79.5947 163.415 79.256 163.143 78.984C162.871 78.712 162.535 78.576 162.135 78.576C161.74 78.576 161.407 78.712 161.135 78.984C160.863 79.256 160.727 79.5947 160.727 80C160.727 80.4053 160.863 80.744 161.135 81.016C161.407 81.288 161.74 81.424 162.135 81.424ZM165.581 79.08C165.581 79.2347 165.658 79.36 165.813 79.456C165.968 79.5467 166.154 79.6213 166.373 79.68C166.592 79.7333 166.81 79.7973 167.029 79.872C167.248 79.9413 167.434 80.064 167.589 80.24C167.744 80.4107 167.821 80.632 167.821 80.904C167.821 81.2667 167.68 81.5573 167.397 81.776C167.12 81.9947 166.762 82.104 166.325 82.104C165.936 82.104 165.602 82.0187 165.325 81.848C165.048 81.6773 164.85 81.4507 164.733 81.168L165.333 80.824C165.397 81.016 165.517 81.168 165.693 81.28C165.869 81.392 166.08 81.448 166.325 81.448C166.554 81.448 166.744 81.4053 166.893 81.32C167.042 81.2293 167.117 81.0907 167.117 80.904C167.117 80.7493 167.04 80.6267 166.885 80.536C166.73 80.44 166.544 80.3653 166.325 80.312C166.106 80.2533 165.888 80.1867 165.669 80.112C165.45 80.0373 165.264 79.9147 165.109 79.744C164.954 79.5733 164.877 79.3547 164.877 79.088C164.877 78.7413 165.01 78.456 165.277 78.232C165.549 78.008 165.888 77.896 166.293 77.896C166.618 77.896 166.906 77.9707 167.157 78.12C167.413 78.264 167.605 78.4667 167.733 78.728L167.149 79.056C167.005 78.7147 166.72 78.544 166.293 78.544C166.096 78.544 165.928 78.592 165.789 78.688C165.65 78.7787 165.581 78.9093 165.581 79.08ZM169.024 80.32C169.093 80.6773 169.256 80.9547 169.512 81.152C169.773 81.3493 170.093 81.448 170.472 81.448C171 81.448 171.384 81.2533 171.624 80.864L172.216 81.2C171.826 81.8027 171.24 82.104 170.456 82.104C169.821 82.104 169.304 81.9067 168.904 81.512C168.509 81.112 168.312 80.608 168.312 80C168.312 79.3973 168.506 78.896 168.896 78.496C169.285 78.096 169.789 77.896 170.408 77.896C170.994 77.896 171.472 78.104 171.84 78.52C172.213 78.9307 172.4 79.4267 172.4 80.008C172.4 80.1093 172.392 80.2133 172.376 80.32H169.024ZM170.408 78.552C170.034 78.552 169.725 78.6587 169.48 78.872C169.234 79.08 169.082 79.36 169.024 79.712H171.696C171.637 79.3333 171.488 79.0453 171.248 78.848C171.008 78.6507 170.728 78.552 170.408 78.552ZM175.552 77.272C175.419 77.272 175.307 77.2267 175.216 77.136C175.125 77.0453 175.08 76.936 175.08 76.808C175.08 76.68 175.125 76.5707 175.216 76.48C175.307 76.384 175.419 76.336 175.552 76.336C175.68 76.336 175.789 76.384 175.88 76.48C175.971 76.5707 176.016 76.68 176.016 76.808C176.016 76.936 175.971 77.0453 175.88 77.136C175.789 77.2267 175.68 77.272 175.552 77.272ZM175.2 82V78H175.896V82H175.2ZM181.278 77.896C181.726 77.896 182.088 78.0427 182.366 78.336C182.643 78.624 182.782 79.016 182.782 79.512V82H182.086V79.536C182.086 79.2267 182.006 78.9867 181.846 78.816C181.686 78.6453 181.472 78.56 181.206 78.56C180.907 78.56 180.667 78.6613 180.486 78.864C180.31 79.0613 180.222 79.3653 180.222 79.776V82H179.526V79.536C179.526 79.2267 179.448 78.9867 179.294 78.816C179.144 78.6453 178.939 78.56 178.678 78.56C178.384 78.56 178.139 78.6613 177.942 78.864C177.75 79.0667 177.654 79.3707 177.654 79.776V82H176.958V78H177.654V78.536C177.926 78.1093 178.323 77.896 178.846 77.896C179.384 77.896 179.776 78.1227 180.022 78.576C180.299 78.1227 180.718 77.896 181.278 77.896ZM187.059 78H187.755V82H187.059V81.312C186.712 81.84 186.208 82.104 185.547 82.104C184.987 82.104 184.509 81.9013 184.115 81.496C183.72 81.0853 183.523 80.5867 183.523 80C183.523 79.4133 183.72 78.9173 184.115 78.512C184.509 78.1013 184.987 77.896 185.547 77.896C186.208 77.896 186.712 78.16 187.059 78.688V78ZM185.635 81.432C186.04 81.432 186.379 81.296 186.651 81.024C186.923 80.7467 187.059 80.4053 187.059 80C187.059 79.5947 186.923 79.256 186.651 78.984C186.379 78.7067 186.04 78.568 185.635 78.568C185.235 78.568 184.899 78.7067 184.627 78.984C184.355 79.256 184.219 79.5947 184.219 80C184.219 80.4053 184.355 80.7467 184.627 81.024C184.899 81.296 185.235 81.432 185.635 81.432ZM192.129 78H192.817V81.832C192.817 82.424 192.617 82.8827 192.217 83.208C191.817 83.5387 191.337 83.704 190.777 83.704C190.329 83.704 189.943 83.6187 189.617 83.448C189.292 83.2827 189.047 83.0427 188.881 82.728L189.489 82.384C189.708 82.832 190.143 83.056 190.793 83.056C191.209 83.056 191.535 82.9467 191.769 82.728C192.009 82.5093 192.129 82.2107 192.129 81.832V81.264C191.777 81.7973 191.276 82.064 190.625 82.064C190.055 82.064 189.572 81.8613 189.177 81.456C188.783 81.0507 188.585 80.5573 188.585 79.976C188.585 79.3947 188.783 78.904 189.177 78.504C189.572 78.0987 190.055 77.896 190.625 77.896C191.281 77.896 191.783 78.16 192.129 78.688V78ZM189.689 80.992C189.961 81.264 190.3 81.4 190.705 81.4C191.111 81.4 191.449 81.264 191.721 80.992C191.993 80.72 192.129 80.3813 192.129 79.976C192.129 79.576 191.993 79.24 191.721 78.968C191.449 78.696 191.111 78.56 190.705 78.56C190.3 78.56 189.961 78.696 189.689 78.968C189.417 79.24 189.281 79.576 189.281 79.976C189.281 80.3813 189.417 80.72 189.689 80.992ZM194.36 80.32C194.429 80.6773 194.592 80.9547 194.848 81.152C195.109 81.3493 195.429 81.448 195.808 81.448C196.336 81.448 196.72 81.2533 196.96 80.864L197.552 81.2C197.162 81.8027 196.576 82.104 195.792 82.104C195.157 82.104 194.64 81.9067 194.24 81.512C193.845 81.112 193.648 80.608 193.648 80C193.648 79.3973 193.842 78.896 194.232 78.496C194.621 78.096 195.125 77.896 195.744 77.896C196.33 77.896 196.808 78.104 197.176 78.52C197.549 78.9307 197.736 79.4267 197.736 80.008C197.736 80.1093 197.728 80.2133 197.712 80.32H194.36ZM195.744 78.552C195.37 78.552 195.061 78.6587 194.816 78.872C194.57 79.08 194.418 79.36 194.36 79.712H197.032C196.973 79.3333 196.824 79.0453 196.584 78.848C196.344 78.6507 196.064 78.552 195.744 78.552ZM198.98 79.08C198.98 79.2347 199.057 79.36 199.212 79.456C199.366 79.5467 199.553 79.6213 199.772 79.68C199.99 79.7333 200.209 79.7973 200.428 79.872C200.646 79.9413 200.833 80.064 200.988 80.24C201.142 80.4107 201.22 80.632 201.22 80.904C201.22 81.2667 201.078 81.5573 200.796 81.776C200.518 81.9947 200.161 82.104 199.724 82.104C199.334 82.104 199.001 82.0187 198.724 81.848C198.446 81.6773 198.249 81.4507 198.132 81.168L198.732 80.824C198.796 81.016 198.916 81.168 199.092 81.28C199.268 81.392 199.478 81.448 199.724 81.448C199.953 81.448 200.142 81.4053 200.292 81.32C200.441 81.2293 200.516 81.0907 200.516 80.904C200.516 80.7493 200.438 80.6267 200.284 80.536C200.129 80.44 199.942 80.3653 199.724 80.312C199.505 80.2533 199.286 80.1867 199.068 80.112C198.849 80.0373 198.662 79.9147 198.508 79.744C198.353 79.5733 198.276 79.3547 198.276 79.088C198.276 78.7413 198.409 78.456 198.676 78.232C198.948 78.008 199.286 77.896 199.692 77.896C200.017 77.896 200.305 77.9707 200.556 78.12C200.812 78.264 201.004 78.4667 201.132 78.728L200.548 79.056C200.404 78.7147 200.118 78.544 199.692 78.544C199.494 78.544 199.326 78.592 199.188 78.688C199.049 78.7787 198.98 78.9093 198.98 79.08Z" fill="white"/>
<defs>
<filter id="filter0_b_540_834" x="145.889" y="18.8891" width="53.2219" height="45.2219" filterUnits="userSpaceOnUse" color-interpolation-filters="sRGB">
<feFlood flood-opacity="0" result="BackgroundImageFix"/>
<feGaussianBlur in="BackgroundImageFix" stdDeviation="4.55546"/>
<feComposite in2="SourceAlpha" operator="in" result="effect1_backgroundBlur_540_834"/>
<feBlend mode="normal" in="SourceGraphic" in2="effect1_backgroundBlur_540_834" result="shape"/>
</filter>
<clipPath id="clip0_540_834">
<rect width="40" height="40" fill="white" transform="translate(158 29)"/>
</clipPath>
</defs>
</svg>
